<svg xmlns="http://www.w3.org/2000/svg" xmlns:xlink="http://www.w3.org/1999/xlink" viewBox="0,0,256,256" width="48px" height="48px"><g fill="#d5d2ae" fill-rule="nonzero" stroke="none" stroke-width="1" stroke-linecap="butt" stroke-linejoin="miter" stroke-miterlimit="10" stroke-dasharray="" stroke-dashoffset="0" font-family="none" font-weight="none" font-size="none" text-anchor="none" style="mix-blend-mode: normal"><path d="M0,256v-256h256v256z" id="bgRectangle"></path></g><g fill="none" fill-rule="nonzero" stroke="none" stroke-width="1" stroke-linecap="butt" stroke-linejoin="miter" stroke-miterlimit="10" stroke-dasharray="" stroke-dashoffset="0" font-family="none" font-weight="none" font-size="none" text-anchor="none" style="mix-blend-mode: normal"><g transform="scale(5.33333,5.33333)"><path d="M35,37c-2.2,0 -4,-1.8 -4,-4c0,-2.2 1.8,-4 4,-4c2.2,0 4,1.8 4,4c0,2.2 -1.8,4 -4,4z" fill="#12047c"></path><path d="M35,43c-3,0 -5.9,-1.4 -7.8,-3.7l3.1,-2.5c1.1,1.4 2.9,2.3 4.7,2.3c3.3,0 6,-2.7 6,-6c0,-3.3 -2.7,-6 -6,-6c-1,0 -2,0.3 -2.9,0.7l-1.7,1l-7.1,-12.8l3.5,-1.9l5.3,9.4c1,-0.3 2,-0.5 3,-0.5c5.5,0 10,4.5 10,10c0,5.5 -4.6,10 -10.1,10z" fill="#12047c"></path><path d="M14,43c-5.5,0 -10,-4.5 -10,-10c0,-4.6 3.1,-8.5 7.5,-9.7l1,3.9c-2.6,0.7 -4.5,3.1 -4.5,5.8c0,3.3 2.7,6 6,6c3.3,0 6,-2.7 6,-6v-2h15v4h-11.2c-0.9,4.6 -5,8 -9.8,8z" fill="#12047c"></path><path d="M14,37c-2.2,0 -4,-1.8 -4,-4c0,-2.2 1.8,-4 4,-4c2.2,0 4,1.8 4,4c0,2.2 -1.8,4 -4,4z" fill="#e91e63"></path><path d="M25,19c-2.2,0 -4,-1.8 -4,-4c0,-2.2 1.8,-4 4,-4c2.2,0 4,1.8 4,4c0,2.2 -1.8,4 -4,4z" fill="#12047c"></path><path d="M15.7,34l-3.4,-2l5.9,-9.7c-2,-1.9 -3.2,-4.5 -3.2,-7.3c0,-5.5 4.5,-10 10,-10c5.5,0 10,4.5 10,10c0,0.9 -0.1,1.7 -0.3,2.5l-3.9,-1c0.1,-0.5 0.2,-1 0.2,-1.5c0,-3.3 -2.7,-6 -6,-6c-3.3,0 -6,2.7 -6,6c0,2.1 1.1,4 2.9,5.1l1.7,1z" fill="#e91e63"></path></g></g></svg>